<mxfile host="app.diagrams.net" modified="2023-08-01T07:22:10.964Z" agent="Mozilla/5.0 (Windows NT 10.0; Win64; x64) AppleWebKit/537.36 (KHTML, like Gecko) Chrome/115.0.0.0 Safari/537.36" version="21.6.5" etag="LL5kOIWqIEJ3EXSUkeEy" type="github">
  <diagram name="Page-1" id="JZ2jQDfUCP6ju2pIAn4-">
    <mxGraphModel>
      <root>
        <mxCell id="0" />
        <mxCell id="1" parent="0" />
      </root>
    </mxGraphModel>
  </diagram>
</mxfile>
